<?xml version="1.0" encoding="utf-8"?>
<!-- Generator: Adobe Illustrator 20.1.0, SVG Export Plug-In . SVG Version: 6.00 Build 0)  -->
<svg version="1.1" id="Layer_1" xmlns="http://www.w3.org/2000/svg" xmlns:xlink="http://www.w3.org/1999/xlink" x="0px" y="0px"
	 viewBox="0 0 162.8 128" style="enable-background:new 0 0 162.8 128;" xml:space="preserve">
<style type="text/css">
	.st0{fill:#707070;}
</style>
<g>
	<path class="st0" d="M56.7,75.4h27.6c-3.2,12.8-12.9,19.9-27.8,19.9c-17.6,0-31.9-14.1-31.9-31.3c0-17.3,14.3-31.3,31.9-31.3
		c7.7,0,15.1,2.7,20.9,7.7l13.2-15C81.1,17.3,69,12.8,56.4,12.8c-28.7,0-52.1,23-52.1,51.2c0,28.2,23.4,51.2,52.1,51.2
		c29.4,0,49.1-20,49.1-49.7v-9.9H56.7V75.4z"/>
	<polygon class="st0" points="144.8,55.6 144.8,40.5 132.7,40.5 132.7,55.6 117.6,55.6 117.6,67.7 132.7,67.7 132.7,82.8 
		144.8,82.8 144.8,67.7 159.9,67.7 159.9,55.6 	"/>
</g>
</svg>
