<?xml version="1.0" encoding="utf-8"?>
<!-- Generator: Adobe Illustrator 16.0.0, SVG Export Plug-In . SVG Version: 6.00 Build 0)  -->
<!DOCTYPE svg PUBLIC "-//W3C//DTD SVG 1.1//EN" "http://www.w3.org/Graphics/SVG/1.1/DTD/svg11.dtd">
<svg version="1.1" id="Layer_1" xmlns="http://www.w3.org/2000/svg" xmlns:xlink="http://www.w3.org/1999/xlink" x="0px" y="0px"
	 width="1252.705px" height="648px" viewBox="0 81.353 1252.705 648" enable-background="new 0 81.353 1252.705 648"
	 xml:space="preserve">
<g>
	<g>
		<path fill="#2C3E50" d="M14.884,102.963c0.548-0.825,1.785-1.578,3.712-2.268c1.92-0.683,3.981-1.031,6.185-1.031
			c2.197,0,4.394,0.277,6.598,0.824c2.196,0.554,3.981,1.379,5.36,2.474c1.095,1.379,1.784,3.37,2.062,5.979
			c0.271,2.616,0.341,5.772,0.206,9.483c-0.142,3.711-0.483,7.77-1.031,12.164c-0.554,4.4-0.966,9.071-1.236,14.02
			c-0.277,3.298-0.555,10.998-0.825,23.09c-0.277,12.1-0.618,26.389-1.03,42.883c-0.413,16.493-0.825,34.018-1.237,52.572
			c-0.412,18.555-0.825,35.667-1.237,51.335c-0.412,15.669-0.896,28.863-1.443,39.584c-0.554,10.721-0.966,16.635-1.236,17.73
			c-1.379,3.028-3.854,5.013-7.422,5.979c-3.576,0.96-6.05-1.03-7.423-5.979c-0.554-2.474-0.896-5.566-1.03-9.277
			c-0.142-3.711-0.142-7.558,0-11.546c0.135-3.981,0.342-7.692,0.618-11.133c0.271-3.434,0.412-6.249,0.412-8.453
			c0-1.095,0-5.153,0-12.163s-0.07-15.875-0.206-26.596c-0.142-10.721-0.276-22.813-0.412-36.285
			c-0.142-13.465-0.277-27.143-0.412-41.027c-0.142-13.877-0.206-27.42-0.206-40.615s0.064-25.082,0.206-35.667
			c0.135-10.579,0.271-19.103,0.412-25.564C14.402,107.022,14.608,103.517,14.884,102.963z"/>
		<path fill="#2C3E50" d="M101.058,137.599c-0.554,5.772-1.378,13.678-2.474,23.709c-1.102,10.038-2.409,23.851-3.917,41.439
			c-1.514,17.595-3.37,39.726-5.566,66.386c-2.203,26.667-4.536,59.788-7.01,99.372c-0.554,0.825-1.927,1.649-4.123,2.474
			c-2.204,0.825-4.606,1.379-7.216,1.649c-2.616,0.277-5.02,0.143-7.216-0.412c-2.204-0.548-3.44-1.649-3.711-3.299
			c-0.555-3.298-0.349-8.588,0.618-15.874c0.96-7.28,1.714-14.773,2.268-22.473c0.271-1.92,0.754-6.392,1.443-13.4
			c0.683-7.011,1.578-15.598,2.68-25.771c1.096-10.167,2.403-21.577,3.918-34.224c1.507-12.641,3.021-25.423,4.535-38.347
			c1.508-12.917,2.951-25.629,4.33-38.141c1.372-12.505,2.608-23.774,3.711-33.812c1.095-10.031,2.062-18.349,2.886-24.946
			c0.825-6.597,1.372-10.579,1.649-11.958c0.271-3.299,1.855-5.631,4.742-7.01c2.886-1.372,6.043-1.991,9.483-1.855
			c3.434,0.142,6.662,0.825,9.689,2.062c3.022,1.237,4.948,2.822,5.773,4.742c1.649,4.123,3.64,10.308,5.979,18.555
			c2.332,8.247,5.013,17.524,8.04,27.833c3.022,10.309,6.044,21.1,9.071,32.368c3.022,11.275,5.979,21.925,8.865,31.956
			c2.887,10.038,5.425,18.903,7.629,26.595c2.196,7.699,3.846,13.195,4.947,16.494c0.825,2.474,1.579,3.917,2.269,4.329
			c0.683,0.413,1.236,0.348,1.649-0.206c0.412-0.547,0.889-1.785,1.442-3.711c1.096-3.021,2.815-8.311,5.154-15.875
			c2.332-7.557,5.013-16.216,8.041-25.977c3.021-9.754,6.113-20.205,9.277-31.337c3.156-11.133,6.249-21.854,9.277-32.162
			c3.021-10.308,5.772-19.586,8.247-27.833c2.474-8.247,4.394-14.567,5.772-18.967c1.372-4.394,3.711-7.486,7.01-9.277
			c3.298-1.785,6.732-2.403,10.308-1.855c3.569,0.554,6.733,1.997,9.484,4.33c2.744,2.338,4.394,5.154,4.947,8.453
			c0,1.102,0.413,6.327,1.237,15.668c0.824,9.349,1.649,20.965,2.474,34.842c0.825,13.884,1.785,28.934,2.887,45.15
			c1.096,16.223,2.197,31.685,3.299,46.388c1.095,14.708,1.92,27.697,2.474,38.965c0.548,11.275,0.96,18.832,1.237,22.679
			c0.271,11.545,0.824,21.17,1.649,28.863c0.824,7.698,1.372,13.336,1.649,16.905c0,1.649-1.031,3.505-3.093,5.566
			s-4.329,3.44-6.804,4.123c-2.474,0.689-4.741,0.206-6.804-1.442c-2.062-1.649-2.957-5.219-2.68-10.721l-12.782-221.835
			c-0.554-0.548-1.379-1.373-2.474-2.474c-1.103-1.095-2.063,0-2.887,3.299c-1.379,4.948-3.505,12.164-6.392,21.647
			c-2.886,9.483-6.05,19.998-9.483,31.543c-3.44,11.545-7.01,23.368-10.721,35.46c-3.711,12.1-7.216,23.232-10.515,33.399
			c-3.299,10.173-6.326,18.626-9.071,25.358c-2.751,6.739-4.677,10.379-5.772,10.927c-2.474,1.378-5.708,1.926-9.689,1.649
			c-3.988-0.271-6.804-1.507-8.453-3.711c-0.554-0.825-1.927-4.671-4.123-11.545c-2.204-6.868-4.884-15.527-8.041-25.977
			c-3.163-10.444-6.532-21.783-10.102-34.018c-3.576-12.229-7.081-24.051-10.515-35.461c-3.44-11.403-6.533-21.647-9.277-30.719
			c-2.751-9.071-4.948-15.527-6.598-19.379c-0.554-0.548-1.308-1.166-2.268-1.855C102.36,134.236,101.606,135.125,101.058,137.599z"
			/>
		<path fill="#2C3E50" d="M370.721,96.778c1.649,0,3.362,0.207,5.153,0.619c1.785,0.413,3.435,1.308,4.948,2.68
			c1.508,1.379,2.815,3.44,3.917,6.185c1.096,2.751,1.649,6.597,1.649,11.545c0,2.474,0.684,7.563,2.062,15.256
			c1.373,7.699,3.157,16.977,5.36,27.833c2.197,10.862,4.742,22.884,7.629,36.079c2.886,13.194,5.837,26.531,8.865,39.996
			c3.021,13.472,6.043,26.596,9.071,39.378c3.021,12.782,5.701,24.192,8.04,34.224c2.332,10.038,4.188,18.284,5.566,24.74
			c1.372,6.462,2.197,10.102,2.475,10.927c0.271,1.649,0.618,3.369,1.03,5.154c0.412,1.791,0.477,3.575,0.206,5.36
			c-0.276,1.791-0.824,3.505-1.649,5.153c-0.824,1.649-2.338,2.887-4.535,3.712c-2.203,0.824-4.266,0.896-6.186,0.206
			c-1.926-0.684-3.711-1.855-5.36-3.505c-1.648-1.649-3.092-3.569-4.329-5.773c-1.237-2.196-2.133-4.394-2.68-6.597
			c-0.277-0.825-0.689-2.951-1.237-6.392c-0.555-3.434-1.237-7.692-2.062-12.782c-0.825-5.083-1.791-10.927-2.887-17.524
			c-1.102-6.597-2.203-13.33-3.299-20.204c0-0.271-1.236-0.412-3.711-0.412c-2.474,0-5.637,0.071-9.483,0.206
			c-3.853,0.142-8.247,0.483-13.194,1.031c-4.948,0.554-9.896,0.967-14.845,1.237c-10.45,0.825-19.862,1.649-28.244,2.474
			c-8.389,0.825-12.718,1.927-12.989,3.299c-3.298,13.195-5.772,22.884-7.422,29.07c-1.649,6.185-2.615,9.555-2.886,10.102
			c-0.825,2.475-1.997,5.844-3.505,10.103c-1.515,4.265-3.37,8.317-5.566,12.164c-2.204,3.853-4.742,7.01-7.629,9.483
			c-2.886,2.474-5.979,3.299-9.277,2.474c-2.203-0.547-3.575-2.126-4.123-4.741c-0.548-2.609-0.477-5.979,0.206-10.103
			s1.785-8.659,3.299-13.606c1.508-4.948,3.363-10.032,5.566-15.257c1.096-2.474,3.569-9.342,7.422-20.616
			c3.847-11.269,8.382-24.599,13.607-39.997c5.219-15.392,10.721-31.75,16.493-49.068s11.197-33.463,16.287-48.449
			c5.083-14.979,9.277-27.69,12.576-38.141c3.299-10.443,5.219-16.352,5.772-17.73c1.372-4.394,2.609-8.794,3.711-13.194
			C365.631,98.981,367.693,96.778,370.721,96.778z M327.838,274.906c-0.555,0.825,0.135,1.443,2.062,1.855
			c1.92,0.413,4.535,0.554,7.834,0.413c3.299-0.135,7.146-0.342,11.546-0.619c4.394-0.271,8.93-0.683,13.606-1.237
			c9.619-0.825,18.001-1.579,25.152-2.268c7.146-0.683,10.444-1.578,9.896-2.68c-2.475-14.019-5.02-27.833-7.628-41.439
			c-2.616-13.607-5.154-25.771-7.629-36.491c-2.474-10.721-4.813-19.444-7.01-26.183c-2.203-6.733-3.987-10.103-5.36-10.103
			c-1.649,0-4.059,3.711-7.216,11.133c-3.163,7.422-6.738,16.841-10.721,28.245c-3.987,11.41-8.111,24.122-12.369,38.141
			C335.737,247.692,331.684,261.44,327.838,274.906z"/>
		<path fill="#2C3E50" d="M557.089,102.963c3.569,3.853,4.807,6.668,3.711,8.453c-1.102,1.791-2.886,3.505-5.36,5.154
			c-2.751,1.649-5.914,1.927-9.483,0.825c-3.575-1.095-7.493-2.197-11.751-3.298c-4.266-1.095-8.659-1.508-13.195-1.237
			c-4.535,0.277-9.142,2.616-13.813,7.01c-7.423,6.875-13.885,16.081-19.38,27.626c-5.502,11.545-9.896,24.328-13.194,38.347
			c-3.299,14.02-5.432,28.593-6.392,43.708c-0.967,15.121-0.618,29.688,1.031,43.707c1.648,14.02,4.741,26.802,9.277,38.348
			c4.535,11.545,10.515,20.894,17.937,28.038c5.218,4.678,10.443,7.834,15.668,9.483c5.219,1.649,10.103,2.41,14.638,2.269
			c4.536-0.136,8.453-0.825,11.752-2.063c3.299-1.236,5.631-2.268,7.01-3.092c3.299-2.197,5.837-5.631,7.628-10.309
			c1.785-4.671,2.951-9.548,3.505-14.638c0.548-5.083,0.548-9.754,0-14.02c-0.554-4.258-1.514-6.938-2.887-8.041
			c-1.378-1.095-4.883-1.785-10.514-2.062c-5.638-0.271-11.546-0.412-17.73-0.412c-6.186,0-11.894-0.064-17.112-0.207
			c-5.225-0.135-8.111-0.618-8.659-1.443c-1.102-1.92-2.268-3.847-3.504-5.773c-1.237-1.92-0.349-3.981,2.68-6.185
			c1.649-1.095,5.566-2.268,11.752-3.504c6.185-1.237,12.988-2.268,20.41-3.093s14.566-1.166,21.441-1.031
			c6.868,0.142,11.545,1.172,14.02,3.092c1.648,1.379,3.092,4.124,4.329,8.247c1.237,4.123,1.991,9.142,2.268,15.05
			c0.271,5.915,0.206,12.164-0.206,18.762c-0.412,6.597-1.308,12.924-2.68,18.967c-1.379,6.05-3.37,11.481-5.979,16.287
			c-2.615,4.813-5.843,8.183-9.689,10.103c-8.801,4.677-18.903,7.01-30.307,7.01c-11.41,0-22.885-2.887-34.43-8.659
			c-10.45-5.219-18.761-14.29-24.946-27.214c-6.185-12.918-10.656-27.762-13.4-44.532c-2.751-16.764-3.782-34.636-3.093-53.604
			c0.683-18.967,2.887-37.11,6.598-54.428s8.794-33.051,15.256-47.212c6.456-14.155,14.084-24.669,22.885-31.544
			c7.145-5.772,14.154-9.483,21.028-11.133c6.868-1.649,13.195-2.197,18.968-1.649c5.772,0.554,10.785,1.855,15.05,3.917
			C552.483,99.046,555.44,101.043,557.089,102.963z"/>
		<path fill="#2C3E50" d="M595.024,102.963c0.548-0.825,1.784-1.578,3.711-2.268c1.92-0.683,3.981-1.031,6.185-1.031
			c2.197,0,4.395,0.277,6.598,0.824c2.197,0.554,3.981,1.379,5.36,2.474c1.096,1.379,1.785,3.37,2.062,5.979
			c0.271,2.616,0.342,5.772,0.206,9.483c-0.142,3.711-0.482,7.77-1.03,12.164c-0.555,4.4-0.967,9.071-1.237,14.02
			c-0.277,3.298-0.554,10.998-0.824,23.09c-0.277,12.1-0.619,26.389-1.031,42.883c-0.412,16.493-0.824,34.018-1.237,52.572
			c-0.412,18.555-0.824,35.667-1.236,51.335c-0.413,15.669-0.896,28.863-1.443,39.584c-0.554,10.721-0.967,16.635-1.237,17.73
			c-1.379,3.028-3.853,5.013-7.422,5.979c-3.575,0.96-6.05-1.03-7.422-5.979c-0.554-2.474-0.896-5.566-1.031-9.277
			c-0.142-3.711-0.142-7.558,0-11.546c0.136-3.981,0.342-7.692,0.619-11.133c0.271-3.434,0.412-6.249,0.412-8.453
			c0-1.095,0-5.153,0-12.163s-0.071-15.875-0.206-26.596c-0.142-10.721-0.277-22.813-0.412-36.285
			c-0.143-13.465-0.277-27.143-0.413-41.027c-0.142-13.877-0.206-27.42-0.206-40.615s0.064-25.082,0.206-35.667
			c0.136-10.579,0.271-19.103,0.413-25.564C594.54,107.022,594.746,103.517,595.024,102.963z"/>
		<path fill="#2C3E50" d="M643.675,102.963c1.096-1.095,2.814-2.403,5.154-3.917c2.332-1.508,4.807-2.68,7.422-3.505
			c2.609-0.825,5.084-0.96,7.422-0.412c2.332,0.554,4.33,2.203,5.979,4.948c0.824,1.379,2.539,5.772,5.154,13.195
			c2.609,7.422,5.908,16.77,9.896,28.039c3.98,11.274,8.311,23.851,12.988,37.729c4.67,13.884,9.484,27.903,14.432,42.058
			c4.947,14.161,9.754,27.975,14.432,41.439c4.67,13.472,8.93,25.43,12.781,35.873c3.848,10.45,7.074,18.832,9.691,25.152
			c2.609,6.327,4.188,9.349,4.74,9.071c0.549-0.271,0.961-3.775,1.238-10.515c0.27-6.732,0.342-15.526,0.205-26.389
			c-0.141-10.856-0.348-23.296-0.617-37.316c-0.277-14.02-0.619-28.309-1.031-42.883c-0.412-14.567-0.76-28.863-1.031-42.882
			c-0.277-14.02-0.555-26.596-0.824-37.729c-0.277-11.133-0.412-20.134-0.412-27.008c0-6.868,0.135-10.579,0.412-11.133
			c1.096-1.92,3.021-3.64,5.773-5.154c2.744-1.508,6.32-0.477,10.721,3.092c1.094,0.825,1.99,5.296,2.68,13.401
			c0.682,8.111,1.236,18.555,1.648,31.337s0.684,27.149,0.824,43.089c0.137,15.945,0.207,32.233,0.207,48.861
			c0,16.635-0.207,32.922-0.619,48.861c-0.412,15.946-0.824,30.307-1.236,43.089s-0.896,23.232-1.443,31.337
			c-0.555,8.111-1.102,12.576-1.648,13.401c-2.475,3.853-5.09,5.979-7.836,6.391c-2.75,0.413-6.326-0.889-10.721-3.917
			c-1.102-0.824-3.162-4.806-6.184-11.957c-3.029-7.146-6.598-16.217-10.721-27.215c-4.123-10.991-8.73-23.432-13.814-37.315
			c-5.09-13.878-10.172-28.039-15.256-42.471c-5.09-14.432-10.102-28.38-15.049-41.852c-4.949-13.465-9.42-25.494-13.402-36.079
			c-3.988-10.579-7.285-18.967-9.895-25.152c-2.617-6.185-4.195-9-4.742-8.453c-0.824,0.554-1.238,6.185-1.238,16.906
			s0.271,23.986,0.826,39.79c0.547,15.811,1.236,32.922,2.061,51.335c0.824,18.42,1.578,35.809,2.268,52.16
			c0.684,16.358,1.166,30.242,1.443,41.646c0.271,11.41,0.271,18.078,0,19.998c-1.379,5.503-3.852,8.111-7.422,7.835
			c-3.576-0.271-6.598-1.92-9.07-4.948c-0.555-0.824-1.174-5.083-1.855-12.782c-0.689-7.692-1.309-17.659-1.855-29.895
			c-0.555-12.228-1.102-26.041-1.65-41.439c-0.555-15.392-1.031-31.131-1.443-47.212s-0.689-31.814-0.824-47.212
			c-0.143-15.392-0.207-29.134-0.207-41.233c0-12.093,0.137-21.989,0.414-29.688C642.708,107.64,643.12,103.517,643.675,102.963z"/>
		<path fill="#2C3E50" d="M877.466,96.778c1.65,0,3.363,0.207,5.154,0.619c1.785,0.413,3.436,1.308,4.949,2.68
			c1.508,1.379,2.814,3.44,3.916,6.185c1.096,2.751,1.65,6.597,1.65,11.545c0,2.474,0.682,7.563,2.061,15.256
			c1.373,7.699,3.158,16.977,5.361,27.833c2.197,10.862,4.742,22.884,7.627,36.079c2.887,13.194,5.838,26.531,8.865,39.996
			c3.023,13.472,6.045,26.596,9.072,39.378c3.021,12.782,5.701,24.192,8.041,34.224c2.332,10.038,4.188,18.284,5.566,24.74
			c1.371,6.462,2.197,10.102,2.473,10.927c0.271,1.649,0.619,3.369,1.031,5.154c0.412,1.791,0.477,3.575,0.207,5.36
			c-0.277,1.791-0.824,3.505-1.65,5.153c-0.824,1.649-2.338,2.887-4.535,3.712c-2.203,0.824-4.266,0.896-6.186,0.206
			c-1.926-0.684-3.711-1.855-5.359-3.505c-1.65-1.649-3.094-3.569-4.33-5.773c-1.236-2.196-2.133-4.394-2.68-6.597
			c-0.277-0.825-0.689-2.951-1.236-6.392c-0.555-3.434-1.238-7.692-2.063-12.782c-0.824-5.083-1.791-10.927-2.887-17.524
			c-1.102-6.597-2.203-13.33-3.299-20.204c0-0.271-1.236-0.412-3.711-0.412c-2.473,0-5.637,0.071-9.482,0.206
			c-3.854,0.142-8.248,0.483-13.195,1.031c-4.947,0.554-9.896,0.967-14.844,1.237c-10.451,0.825-19.863,1.649-28.246,2.474
			c-8.387,0.825-12.717,1.927-12.988,3.299c-3.299,13.195-5.771,22.884-7.422,29.07c-1.648,6.185-2.615,9.555-2.887,10.102
			c-0.824,2.475-1.996,5.844-3.504,10.103c-1.514,4.265-3.369,8.317-5.566,12.164c-2.203,3.853-4.742,7.01-7.629,9.483
			c-2.885,2.474-5.979,3.299-9.277,2.474c-2.203-0.547-3.574-2.126-4.123-4.741c-0.547-2.609-0.477-5.979,0.207-10.103
			c0.682-4.123,1.783-8.659,3.299-13.606c1.506-4.948,3.363-10.032,5.566-15.257c1.094-2.474,3.568-9.342,7.422-20.616
			c3.846-11.269,8.381-24.599,13.605-39.997c5.219-15.392,10.721-31.75,16.494-49.068s11.197-33.463,16.287-48.449
			c5.084-14.979,9.277-27.69,12.576-38.141c3.299-10.443,5.219-16.352,5.773-17.73c1.371-4.394,2.609-8.794,3.711-13.194
			C872.376,98.981,874.439,96.778,877.466,96.778z M834.585,274.906c-0.555,0.825,0.135,1.443,2.061,1.855
			c1.92,0.413,4.535,0.554,7.834,0.413c3.299-0.135,7.145-0.342,11.545-0.619c4.395-0.271,8.93-0.683,13.607-1.237
			c9.619-0.825,18.002-1.579,25.152-2.268c7.145-0.683,10.443-1.578,9.896-2.68c-2.475-14.019-5.02-27.833-7.629-41.439
			c-2.615-13.607-5.154-25.771-7.627-36.491c-2.475-10.721-4.813-19.444-7.01-26.183c-2.203-6.733-3.988-10.103-5.361-10.103
			c-1.648,0-4.059,3.711-7.215,11.133c-3.164,7.422-6.74,16.841-10.721,28.245c-3.988,11.41-8.111,24.122-12.371,38.141
			C842.484,247.692,838.431,261.44,834.585,274.906z"/>
		<path fill="#2C3E50" d="M957.454,105.849c-0.277-2.474,0.135-4.394,1.236-5.772c1.096-1.372,2.539-2.403,4.33-3.092
			c1.785-0.683,3.711-1.167,5.771-1.443c2.063-0.271,4.189-0.683,6.393-1.237c1.371-0.271,4.877-0.477,10.514-0.619
			c5.631-0.135,12.299,0.554,19.998,2.062c7.693,1.514,15.875,4.194,24.533,8.041c8.66,3.853,16.494,9.419,23.504,16.7
			c7.01,7.287,12.711,16.77,17.111,28.451c4.395,11.687,6.32,26.183,5.773,43.501c-0.824,19.244-3.369,35.19-7.629,47.831
			c-4.266,12.647-9.689,22.955-16.287,30.925c-6.598,7.976-13.955,13.955-22.059,17.937c-8.111,3.988-16.152,6.804-24.123,8.453
			c-1.926,0.554-2.615,1.031-2.061,1.443c0.547,0.413,1.236,1.031,2.061,1.855c6.598,6.05,13.402,12.164,20.412,18.349
			c7.008,6.185,13.465,11.751,19.379,16.699c5.908,4.948,10.99,9.143,15.256,12.576c4.26,3.44,6.939,5.566,8.041,6.392
			c1.92,1.378,2.814,3.504,2.68,6.391c-0.141,2.887-0.895,5.638-2.268,8.247c-1.379,2.615-3.299,4.677-5.773,6.185
			c-2.473,1.508-4.947,1.714-7.422,0.618c-1.648-0.554-5.359-3.504-11.133-8.864c-5.771-5.36-12.369-11.752-19.791-19.174
			s-15.121-15.186-23.092-23.297c-7.975-8.104-14.984-15.05-21.029-20.823c-1.377-1.373-2.338-1.92-2.885-1.649
			c-0.555,0.277-0.967,0.554-1.238,0.825c-0.824,0.825-1.379,4.33-1.648,10.515c-0.277,6.185-0.555,12.988-0.824,20.41
			c-0.277,7.422-0.555,14.432-0.826,21.029c-0.275,6.597-0.824,10.721-1.648,12.37c-1.379,3.575-3.854,5.708-7.422,6.391
			c-3.576,0.689-6.051-0.477-7.422-3.505c-0.824-1.649-1.443-5.083-1.855-10.308c-0.412-5.219-0.689-13.054-0.824-23.504
			c-0.143-10.443-0.072-23.773,0.205-39.996c0.271-16.216,0.684-36.144,1.238-59.789c0.27-14.844,0.547-29.482,0.824-43.914
			c0.27-14.432,0.412-27.69,0.412-39.79c0-12.093,0-22.401,0-30.925C957.866,113.825,957.724,108.323,957.454,105.849z
			 M974.359,125.641c0,0.825,0.064,4.884,0.207,12.164c0.135,7.287,0.271,16.223,0.412,26.802
			c0.135,10.585,0.271,21.924,0.412,34.018c0.135,12.099,0.342,23.368,0.619,33.811c0.27,10.45,0.477,19.245,0.619,26.389
			c0.135,7.151,0.205,10.998,0.205,11.545c0,0.825,0.064,1.926,0.207,3.299c0.135,1.379,0.412,2.616,0.824,3.711
			c0.412,1.102,1.166,2.062,2.268,2.886c1.096,0.825,2.744,1.102,4.947,0.825c1.373-0.271,4.189-0.619,8.453-1.031
			c4.26-0.412,9.072-1.443,14.432-3.092c5.361-1.649,11.063-4.259,17.113-7.834c6.043-3.569,11.545-8.453,16.492-14.638
			c4.947-6.185,9.072-13.949,12.371-23.297c3.297-9.342,5.082-20.887,5.359-34.636c0-13.465-1.514-24.804-4.535-34.018
			c-3.029-9.207-7.08-16.628-12.164-22.266c-5.09-5.631-10.586-9.896-16.494-12.783c-5.914-2.886-11.686-4.948-17.318-6.185
			c-5.637-1.237-10.719-1.855-15.256-1.855c-4.535,0-7.627,0-9.277,0c-5.502,0-8.523,0.483-9.07,1.443
			C974.63,121.865,974.359,123.444,974.359,125.641z"/>
		<path fill="#2C3E50" d="M1081.98,111.622c-1.096-3.299-0.889-6.32,0.617-9.071c1.508-2.745,3.57-4.806,6.186-6.185
			c2.609-1.373,5.361-1.855,8.246-1.443c2.887,0.413,5.014,2.133,6.393,5.154c0.824,2.204,2.68,7.77,5.566,16.7
			c2.887,8.936,6.184,19.585,9.895,31.956c3.713,12.37,7.559,25.429,11.547,39.172c3.98,13.749,7.691,26.389,11.133,37.935
			c3.434,11.545,7.352,24.882,11.752,39.996c4.67-14.844,8.793-27.897,12.369-39.171c3.568-11.269,7.486-23.709,11.752-37.316
			c4.258-13.607,8.381-26.595,12.369-38.965c3.982-12.37,7.422-23.361,10.309-32.987c2.887-9.619,4.877-16.081,5.979-19.379
			c1.373-4.948,3.434-8.247,6.186-9.896c2.744-1.649,5.289-1.855,7.629-0.619c2.332,1.237,4.258,3.576,5.771,7.01
			c1.508,3.44,1.715,7.628,0.619,12.576c-0.824,3.299-2.957,10.038-6.391,20.204c-3.441,10.173-7.494,22.06-12.164,35.667
			c-4.678,13.607-9.762,27.833-15.258,42.676c-5.502,14.844-10.449,28.593-14.844,41.233c-4.4,12.647-8.111,23.232-11.133,31.75
			c-3.027,8.524-4.4,13.195-4.123,14.02c0.271,1.102,0.477,5.019,0.619,11.751c0.135,6.739,0.342,14.09,0.617,22.06
			c0.271,7.976,0.479,15.604,0.619,22.884c0.135,7.287,0.207,12.164,0.207,14.639c0,2.474-1.031,4.606-3.094,6.391
			c-2.061,1.791-4.328,2.887-6.803,3.299s-4.813-0.136-7.01-1.649c-2.203-1.508-3.441-4.465-3.711-8.865
			c-0.277-4.394-0.412-10.237-0.412-17.524c0-7.28,0-14.496,0-21.647c0-7.145,0.064-13.536,0.205-19.173
			c0.137-5.631,0.207-8.865,0.207-9.689c0-0.548-1.443-5.154-4.33-13.813c-2.887-8.659-6.461-19.444-10.721-32.368
			c-4.264-12.917-9.006-26.937-14.225-42.058c-5.225-15.115-10.104-29.34-14.639-42.677c-4.535-13.33-8.453-24.875-11.752-34.636
			C1084.866,119.804,1082.804,113.825,1081.98,111.622z"/>
	</g>
	<g>
		<path fill="#C0392B" d="M17.513,724V452.504h95.099c32.94,0,57.927,6.311,74.96,18.927c17.029,12.618,25.546,31.11,25.546,55.474
			c0,13.303-3.421,25.019-10.256,35.149c-6.838,10.133-16.348,17.56-28.529,22.282c13.921,3.481,24.894,10.507,32.911,21.071
			c8.019,10.567,12.027,23.494,12.027,38.785c0,26.105-8.33,45.87-24.986,59.296c-16.66,13.426-40.402,20.264-71.23,20.512H17.513z
			 M73.453,566.249h41.396c28.218-0.495,42.328-11.748,42.328-33.751c0-12.307-3.575-21.164-10.722-26.571
			c-7.15-5.407-18.432-8.111-33.844-8.111H73.453V566.249z M73.453,605.78v73.281h47.922c13.175,0,23.463-3.138,30.86-9.417
			c7.395-6.275,11.095-14.946,11.095-26.012c0-24.861-12.866-37.48-38.599-37.853H73.453z"/>
		<path fill="#C0392B" d="M361.732,624.613h-44.566V724h-55.939V452.504h100.879c32.072,0,56.808,7.149,74.214,21.443
			c17.402,14.297,26.105,34.497,26.105,60.603c0,18.524-4.01,33.969-12.027,46.337c-8.019,12.371-20.171,22.222-36.454,29.555
			l58.736,110.948V724h-60.042L361.732,624.613z M317.165,579.302h45.125c14.047,0,24.923-3.572,32.632-10.722
			c7.707-7.147,11.562-16.998,11.562-29.556c0-12.802-3.637-22.871-10.908-30.207c-7.272-7.334-18.432-11.002-33.471-11.002h-44.939
			V579.302z"/>
		<path fill="#C0392B" d="M658.214,668.059h-98.082L541.486,724h-59.483l101.065-271.496h51.838L736.531,724h-59.484
			L658.214,668.059z M575.237,622.748h67.874l-34.124-101.624L575.237,622.748z"/>
		<path fill="#C0392B" d="M982.667,724h-55.939L817.829,545.364V724H761.89V452.504h55.939l109.084,179.009V452.504h55.754V724z"/>
		<path fill="#C0392B" d="M1031.521,724V452.504h83.537c23.867,0,45.219,5.378,64.051,16.129
			c18.834,10.754,33.533,26.045,44.1,45.871c10.564,19.83,15.85,42.36,15.85,67.595v12.493c0,25.237-5.191,47.675-15.568,67.314
			c-10.381,19.644-25.02,34.869-43.914,45.685c-18.896,10.815-40.215,16.287-63.959,16.409H1031.521z M1087.46,497.815v181.246
			h27.039c21.877,0,38.598-7.147,50.158-21.443c11.563-14.294,17.465-34.744,17.715-61.348v-14.358
			c0-27.598-5.719-48.511-17.154-62.746c-11.439-14.232-28.156-21.351-50.16-21.351H1087.46z"/>
	</g>
</g>
</svg>
