<?xml version="1.0" encoding="utf-8"?>
<!-- Generator: Adobe Illustrator 20.1.0, SVG Export Plug-In . SVG Version: 6.00 Build 0)  -->
<svg version="1.1" id="Layer_1" xmlns="http://www.w3.org/2000/svg" xmlns:xlink="http://www.w3.org/1999/xlink" x="0px" y="0px"
	 viewBox="0 0 128 128" style="enable-background:new 0 0 128 128;" xml:space="preserve">
<style type="text/css">
	.st0{fill:#598DCA;}
</style>
<g>
	<path class="st0" d="M20.4,110.8c18.5,5.8,40.6,3.2,57.1-6.6c11.7-7,23.5-20.7,29.1-34c3-7.2,6-20.1,6-26.3c0-4,0.2-4.6,5.2-9.4
		c2.8-2.8,5.6-6,6.2-6.8c0.8-1.6,0.8-1.6-3.6-0.2c-7.4,2.6-8.4,2.2-4.8-1.6c2.8-2.8,6-8,6-9.4c0-0.2-1.4,0.2-2.8,1
		c-1.6,0.8-5,2.2-7.6,3l-4.8,1.6l-4.2-3c-2.4-1.6-5.6-3.4-7.4-3.8c-5-1.8-11.7-1.6-15.7-0.2c-11,4-17.7,14.1-16.9,25.3l0.2,4.4
		L58,44.3c-15.9-2-29.7-9-41.4-20.3l-5.8-5.8l-1.4,4.2c-3.2,9.4-1.2,19.3,5.4,26.1c3.4,3.8,2.8,4.2-3.4,2c-2-0.8-4-1.2-4.2-1
		c-0.6,0.6,1.4,8.6,3.2,11.7c2.2,4.4,7,8.8,11.9,11.3l4.2,2h-5c-4.8,0-5,0-4.6,2c1.8,5.8,8.6,11.7,16.3,14.3l5.4,1.8l-4.6,3
		c-7,4-15.1,6.4-23.3,6.6c-4,0-7.2,0.4-7.2,0.8C3.7,103.8,14.2,108.8,20.4,110.8z"/>
</g>
</svg>
